<svg xmlns="http://www.w3.org/2000/svg" version="1.1" xmlns:xlink="http://www.w3.org/1999/xlink" xmlns:svgjs="http://svgjs.dev/svgjs" width="1000" height="111" viewBox="0 0 1000 111"><g transform="matrix(1,0,0,1,-0.6060558893422581,-0.24710697124111647)"><svg viewBox="0 0 396 44" data-background-color="#ffffff" preserveAspectRatio="xMidYMid meet" height="111" width="1000" xmlns="http://www.w3.org/2000/svg" xmlns:xlink="http://www.w3.org/1999/xlink"><g id="tight-bounds" transform="matrix(1,0,0,1,0.2399983167125015,0.09795231292440576)"><svg viewBox="0 0 395.52 43.80409379588094" height="43.80409379588094" width="395.52"><g><svg viewBox="0 0 451.55018426291383 50.00947265625" height="43.80409379588094" width="395.52"><g><svg viewBox="0 0 451.55018426291383 50.00947265625" height="50.00947265625" width="451.55018426291383"><g><svg viewBox="0 0 451.55018426291383 50.00947265625" height="50.00947265625" width="451.55018426291383"><g><svg viewBox="0 0 451.55018426291383 50.00947265625" height="50.00947265625" width="451.55018426291383"><g><svg><g></g><g></g></svg></g><g><svg><g><svg></svg></g><g></g></svg></g><g id="text-0"><svg viewBox="0 0 451.55018426291383 50.00947265625" height="50.00947265625" width="451.55018426291383"><g transform="matrix(1,0,0,1,0,0.6217834648604885)"><svg width="395.52" viewBox="3.6100001335144043 -30.65999984741211 250.66000366210938 30.899999618530273" height="48.76590572652902" data-palette-color="#0030a9"><path d="M15.45 0.24Q11.67 0.24 9.01-0.94 6.35-2.12 4.98-4.37 3.61-6.62 3.61-9.74L3.61-9.74 3.61-29.52Q3.61-30.49 5.35-30.49L5.35-30.49 5.69-30.49Q7.42-30.49 7.42-29.52L7.42-29.52 7.42-9.59Q7.42-7.69 8.47-6.2 9.52-4.71 11.35-3.88 13.18-3.05 15.45-3.05L15.45-3.05Q17.75-3.05 19.58-3.89 21.41-4.74 22.45-6.23 23.49-7.71 23.49-9.59L23.49-9.59 23.49-29.52Q23.49-30.49 25.22-30.49L25.22-30.49 25.59-30.49Q27.29-30.49 27.29-29.52L27.29-29.52 27.29-9.74Q27.29-6.62 25.93-4.37 24.56-2.12 21.9-0.94 19.24 0.24 15.45 0.24L15.45 0.24ZM41.5 0.24Q39.11 0.24 37.05-0.28 34.98-0.81 33.75-1.55 32.52-2.29 32.52-2.91L32.52-2.91Q32.52-3.25 32.8-3.81 33.08-4.37 33.44-4.81 33.81-5.25 34.03-5.25L34.03-5.25Q34.23-5.25 34.89-4.86L34.89-4.86Q36.4-4.08 37.89-3.56 39.38-3.05 41.5-3.05L41.5-3.05Q43.16-3.05 44.46-3.69 45.75-4.32 46.47-5.48 47.19-6.64 47.19-8.15L47.19-8.15Q47.19-9.77 46.32-10.83 45.46-11.89 44.22-12.51 42.99-13.13 40.65-14.06L40.65-14.06Q38.11-15.04 36.63-15.88 35.15-16.72 34.12-18.33 33.08-19.95 33.08-22.61L33.08-22.61Q33.08-24.93 34.27-26.77 35.47-28.61 37.67-29.64 39.87-30.66 42.72-30.66L42.72-30.66Q44.02-30.66 45.68-30.31 47.34-29.96 48.52-29.35 49.7-28.74 49.7-28L49.7-28Q49.7-27.69 49.45-27.14 49.19-26.59 48.85-26.15 48.51-25.71 48.31-25.71L48.31-25.71Q48.09-25.71 47.43-26.07L47.43-26.07Q46.34-26.66 45.26-27.01 44.19-27.37 42.65-27.37L42.65-27.37Q40.13-27.37 38.58-26.07 37.03-24.78 37.03-22.46L37.03-22.46Q37.03-21.07 37.72-20.17 38.4-19.26 39.45-18.73 40.5-18.19 42.38-17.48L42.38-17.48Q42.5-17.46 42.94-17.29L42.94-17.29Q45.53-16.28 47.18-15.34 48.83-14.4 49.99-12.65 51.14-10.89 51.14-8.15L51.14-8.15Q51.14-5.59 49.96-3.69 48.78-1.78 46.59-0.77 44.41 0.24 41.5 0.24L41.5 0.24ZM58.12 0Q57.44 0 57.12-0.32 56.81-0.63 56.81-1.29L56.81-1.29 56.81-29.08Q56.81-29.76 57.12-30.07 57.44-30.37 58.12-30.37L58.12-30.37 73.26-30.37Q73.73-30.37 73.93-30.08 74.14-29.79 74.14-29.08L74.14-29.08 74.14-28.37Q74.14-27.71 73.93-27.39 73.73-27.08 73.26-27.08L73.26-27.08 60.64-27.08 60.64-17.19 71.97-17.19Q72.43-17.19 72.64-16.87 72.85-16.55 72.85-15.87L72.85-15.87 72.85-15.21Q72.85-14.53 72.64-14.22 72.43-13.92 71.97-13.92L71.97-13.92 60.64-13.92 60.64-3.3 73.31-3.3Q73.77-3.3 73.98-2.99 74.19-2.69 74.19-2L74.19-2 74.19-1.29Q74.19-0.63 73.98-0.32 73.77 0 73.31 0L73.31 0 58.12 0ZM79.09-9.99Q78.63-9.99 78.42-10.29 78.22-10.6 78.22-11.28L78.22-11.28 78.22-11.74Q78.22-12.4 78.42-12.72 78.63-13.04 79.09-13.04L79.09-13.04 87.3-13.04Q87.76-13.04 87.97-12.72 88.18-12.4 88.18-11.74L88.18-11.74 88.18-11.28Q88.18-10.6 87.97-10.29 87.76-9.99 87.3-9.99L87.3-9.99 79.09-9.99ZM106.68 0.24Q99.55 0.24 96.13-3.52 92.71-7.28 92.71-15.21L92.71-15.21Q92.71-30.66 106.75-30.66L106.75-30.66Q108.8-30.66 110.73-30.24 112.66-29.81 113.86-29.17 115.05-28.54 115.05-27.95L115.05-27.95Q115.05-27.59 114.8-26.98 114.54-26.37 114.2-25.9 113.86-25.44 113.59-25.44L113.59-25.44Q113.47-25.44 112.91-25.76L112.91-25.76Q111.64-26.44 110.24-26.9 108.85-27.37 106.85-27.37L106.85-27.37Q101.6-27.37 99.12-24.45 96.65-21.53 96.65-15.16L96.65-15.16Q96.65-8.94 99.1-5.99 101.55-3.05 106.68-3.05L106.68-3.05Q108.83-3.05 110.37-3.56 111.9-4.08 113.32-4.83L113.32-4.83Q114-5.2 114.15-5.2L114.15-5.2Q114.42-5.2 114.77-4.74 115.13-4.27 115.4-3.7 115.66-3.13 115.66-2.88L115.66-2.88Q115.66-2.27 114.43-1.53 113.2-0.78 111.14-0.27 109.07 0.24 106.68 0.24L106.68 0.24ZM119.49 0.07Q118.52 0.07 118.08-0.11 117.64-0.29 117.64-0.66L117.64-0.66Q117.64-0.83 117.76-1.25L117.76-1.25 128.04-29.79Q128.28-30.49 129.77-30.49L129.77-30.49 131.04-30.49Q132.53-30.49 132.78-29.79L132.78-29.79 143.05-1.22Q143.18-0.95 143.18-0.66L143.18-0.66Q143.18 0.07 141.34 0.07L141.34 0.07 140.98 0.07Q139.47 0.07 139.22-0.61L139.22-0.61 136.68-7.74 123.94-7.74 121.45-0.61Q121.23 0.07 119.71 0.07L119.71 0.07 119.49 0.07ZM125.13-11.04L135.51-11.04 130.97-23.95Q130.77-24.49 130.65-25.17 130.53-25.85 130.43-26.49L130.43-26.49 130.33-26.49Q130.04-24.85 129.68-23.95L129.68-23.95 125.13-11.04ZM149.67 0.07Q147.91 0.07 147.91-0.88L147.91-0.88 147.91-29.08Q147.91-29.76 148.23-30.07 148.54-30.37 149.23-30.37L149.23-30.37 156.53-30.37Q161.73-30.37 164.35-28.54 166.98-26.71 166.98-22.71L166.98-22.71Q166.98-20 165.67-18.15 164.36-16.31 162-15.38L162-15.38 162-15.21Q163.27-14.77 164.08-13.51 164.9-12.26 165.9-9.79L165.9-9.79 169.3-1.22Q169.42-0.78 169.42-0.61L169.42-0.61Q169.42 0.07 167.59 0.07L167.59 0.07 167.15 0.07Q166.49 0.07 166.01-0.11 165.54-0.29 165.41-0.61L165.41-0.61 162.12-9.13Q161.48-10.79 160.63-11.72 159.78-12.65 158.6-13.01 157.43-13.38 155.65-13.38L155.65-13.38 151.74-13.38 151.74-0.88Q151.74 0.07 150.01 0.07L150.01 0.07 149.67 0.07ZM151.74-16.67L157.46-16.67Q158.99-16.67 160.28-17.41 161.56-18.14 162.3-19.37 163.05-20.61 163.05-22L163.05-22Q163.05-24.56 161.48-25.82 159.92-27.08 157.16-27.08L157.16-27.08 151.74-27.08 151.74-16.67ZM175.71 0Q175.03 0 174.71-0.32 174.4-0.63 174.4-1.29L174.4-1.29 174.4-29.08Q174.4-29.76 174.71-30.07 175.03-30.37 175.71-30.37L175.71-30.37 184.48-30.37Q190.58-30.37 194.25-26.76 197.91-23.14 197.91-15.21L197.91-15.21Q197.91-7.23 194.25-3.61 190.58 0 184.48 0L184.48 0 175.71 0ZM178.23-3.3L184.19-3.3Q188.58-3.3 191.27-6.16 193.95-9.03 193.95-15.21L193.95-15.21Q193.95-19.36 192.68-22.01 191.41-24.66 189.22-25.87 187.02-27.08 184.19-27.08L184.19-27.08 178.23-27.08 178.23-3.3ZM202.76 0.07Q201.79 0.07 201.35-0.11 200.91-0.29 200.91-0.66L200.91-0.66Q200.91-0.83 201.03-1.25L201.03-1.25 211.31-29.79Q211.55-30.49 213.04-30.49L213.04-30.49 214.31-30.49Q215.8-30.49 216.04-29.79L216.04-29.79 226.32-1.22Q226.44-0.95 226.44-0.66L226.44-0.66Q226.44 0.07 224.61 0.07L224.61 0.07 224.25 0.07Q222.73 0.07 222.49-0.61L222.49-0.61 219.95-7.74 207.21-7.74 204.72-0.61Q204.5 0.07 202.98 0.07L202.98 0.07 202.76 0.07ZM208.4-11.04L218.78-11.04 214.24-23.95Q214.04-24.49 213.92-25.17 213.8-25.85 213.7-26.49L213.7-26.49 213.6-26.49Q213.31-24.85 212.94-23.95L212.94-23.95 208.4-11.04ZM232.64 0.07Q231.72 0.07 231.3-0.16 230.89-0.39 230.89-0.88L230.89-0.88 230.89-29.52Q230.89-30.49 232.64-30.49L232.64-30.49 233.55-30.49Q234.23-30.49 234.63-30.3 235.04-30.1 235.35-29.66L235.35-29.66 249.22-8.74 250.51-6.3 250.51-29.52Q250.51-30.49 252.22-30.49L252.22-30.49 252.57-30.49Q254.27-30.49 254.27-29.52L254.27-29.52 254.27-0.88Q254.27-0.39 253.86-0.16 253.44 0.07 252.57 0.07L252.57 0.07 251.69 0.07Q251.08 0.07 250.71-0.07 250.34-0.22 250.15-0.54L250.15-0.54 235.84-22.12 234.67-24.37 234.67-0.88Q234.67 0.07 232.94 0.07L232.94 0.07 232.64 0.07Z" opacity="1" transform="matrix(1,0,0,1,0,0)" fill="#0030a9" class="undefined-text-0" data-fill-palette-color="primary"></path></svg></g><g><svg xmlns="http://www.w3.org/2000/svg" xmlns:xlink="http://www.w3.org/1999/xlink" version="1.1" x="407.32693359374997" y="0" viewBox="12.549999237060547 5 74.89999389648438 84.69999694824219" enable-background="new 0 0 100 100" xml:space="preserve" height="50.00947265625" width="44.223250669163846" class="icon-c-0" data-fill-palette-color="accent" id="c-0"><path d="M50 40c1.4 0 2.5-1.1 2.5-2.5v-30C52.5 6.1 51.4 5 50 5s-2.5 1.1-2.5 2.5v30C47.5 38.9 48.6 40 50 40z" fill="#0030a9" data-fill-palette-color="accent"></path><path d="M50 89.7c10 0 19.4-3.9 26.5-11 14.6-14.6 14.6-38.4 0-53-1-1-2.6-1-3.5 0-1 1-1 2.6 0 3.5 12.7 12.7 12.7 33.3 0 46-6.1 6.1-14.3 9.5-23 9.5s-16.8-3.4-23-9.5c-12.7-12.7-12.7-33.3 0-46 1-1 1-2.6 0-3.5-1-1-2.6-1-3.5 0-14.6 14.6-14.6 38.4 0 53C30.6 85.8 40 89.7 50 89.7z" fill="#0030a9" data-fill-palette-color="accent"></path></svg></g></svg></g></svg></g></svg></g></svg></g><g></g></svg></g><defs></defs></svg><rect width="395.52" height="43.80409379588094" fill="none" stroke="none" visibility="hidden"></rect></g></svg></g></svg>